<svg width="188" height="65" viewBox="0 0 188 65" fill="none" xmlns="http://www.w3.org/2000/svg">
<g clip-path="url(#clip0_67_102984)">
<path d="M19.8494 53.7249H19.1696L15.7761 50.3314V49.6516L20.9639 44.4637H24.558L25.0373 44.9429V48.5371L19.8494 53.7249Z" fill="white"/>
<path d="M15.7761 15.3428V14.6629L19.1696 11.2694H19.8494L25.0373 16.4572V20.0514L24.558 20.5306H20.9639L15.7761 15.3428Z" fill="white"/>
<path d="M45.6493 42.7865H40.7122L40.2999 42.3741V30.8171C40.2999 28.7609 39.4919 27.1672 37.0122 27.1115C35.7361 27.0781 34.2762 27.1115 32.7159 27.1728L32.4819 27.4124V42.3685L32.0695 42.7809H27.1325L26.7201 42.3685V22.6258L27.1325 22.2134H38.2437C42.5622 22.2134 46.0616 25.7129 46.0616 30.0314V42.3741L45.6493 42.7865Z" fill="white"/>
<path d="M20.5515 35.3864H0.803221L0.390869 34.9741V30.0258L0.803221 29.6135H20.5515L20.9639 30.0258V34.9741L20.5515 35.3864Z" fill="white"/>
<path d="M71.9841 35.3864H52.2358L51.8234 34.9741V30.0258L52.2358 29.6135H71.9841L72.3964 30.0258V34.9741L71.9841 35.3864Z" fill="white"/>
<path d="M33.5462 16.0449V1.23364L33.9585 0.821289H38.9068L39.3191 1.23364V16.0449L38.9068 16.4572H33.9585L33.5462 16.0449Z" fill="white"/>
<path d="M33.5462 63.7663V48.955L33.9585 48.5427H38.9068L39.3191 48.955V63.7663L38.9068 64.1786H33.9585L33.5462 63.7663Z" fill="white"/>
</g>
<path d="M99.3029 32.828H112.295V34.984H99.3029V32.828ZM104.623 27.452H106.975V40.332H104.623V27.452Z" fill="white"/>
<g clip-path="url(#clip1_67_102984)">
<path d="M148.252 8.5C147.087 8.5 145.934 8.72966 144.858 9.17584C143.782 9.62201 142.805 10.276 141.982 11.1003C141.158 11.9246 140.506 12.9031 140.062 13.9798C139.617 15.0564 139.389 16.2102 139.391 17.3751V30.6659C139.391 31.76 139.694 32.8324 140.268 33.7641C140.841 34.696 141.662 35.4503 142.638 35.9431L154.174 41.7339V23.2691H172.625L187.364 8.5H148.252Z" fill="white"/>
<path d="M178.532 56.5057C180.882 56.5048 183.135 55.5709 184.796 53.9093C186.458 52.2474 187.391 49.994 187.391 47.6442V34.3506C187.39 33.2555 187.084 32.1822 186.509 31.251C185.933 30.3194 185.109 29.5665 184.13 29.0761L172.625 23.269V41.7339H154.173L139.421 56.5057H178.532Z" fill="white"/>
</g>
<defs>
<clipPath id="clip0_67_102984">
<rect width="72" height="63.3573" fill="white" transform="translate(0.390869 0.821289)"/>
</clipPath>
<clipPath id="clip1_67_102984">
<rect width="48" height="48" fill="white" transform="translate(139.391 8.5)"/>
</clipPath>
</defs>
</svg>
